<?xml version="1.0" standalone="no"?><!DOCTYPE svg PUBLIC "-//W3C//DTD SVG 1.1//EN" "http://www.w3.org/Graphics/SVG/1.1/DTD/svg11.dtd"><svg t="1684292639418" class="icon" viewBox="0 0 1024 1024" version="1.1" xmlns="http://www.w3.org/2000/svg" p-id="2398" xmlns:xlink="http://www.w3.org/1999/xlink" width="200" height="200"><path d="M843.867628 820.108708h-76.672213c-10.412276 0-18.931411-8.519135-18.931411-18.931411v-111.695323c0-20.824552-17.03827-37.862821-37.862821-37.862821H300.725458c-20.824552 0-37.862821 17.03827-37.862822 37.862821v111.695323c0 10.412276-8.519135 18.931411-18.93141 18.931411H167.259013c-46.57127 0-84.623405-37.862821-84.623406-84.623406V509.822888c0-46.57127 37.862821-84.623405 84.623406-84.623406h68.72102c10.412276 0 18.931411 8.519135 18.931411 18.931411s-8.519135 18.931411-18.931411 18.931411H167.259013c-25.746718 0-46.760584 21.013866-46.760584 46.760584v225.851728c0 25.746718 21.013866 46.760584 46.760584 46.760585h57.740802v-92.763912c0-41.838417 33.887225-75.725642 75.725643-75.725643h409.865039c41.838417 0 75.725642 33.887225 75.725643 75.725643v92.763912h57.740802c25.746718 0 46.760584-21.013866 46.760584-46.760585V509.822888c0-25.746718-21.013866-46.760584-46.760584-46.760584H775.146608c-10.412276 0-18.931411-8.519135-18.931411-18.931411s8.519135-18.931411 18.931411-18.931411h68.72102c46.57127 0 84.623405 37.862821 84.623405 84.623406v225.851728c0 46.57127-37.862821 84.434091-84.623405 84.434092z" fill="#262435" p-id="2399"></path><path d="M775.146608 463.062304H235.980033c-10.412276 0-18.931411-8.519135-18.93141-18.931411v-173.222407c0-43.35293 35.212424-78.565354 78.565354-78.565354h419.709373c43.35293 0 78.565354 35.212424 78.565354 78.565354v173.222407c0.189314 10.412276-8.329821 18.931411-18.742096 18.931411z m-520.235164-37.862822H756.215197v-154.290996c0-22.528379-18.174154-40.702533-40.702533-40.702533H295.613977c-22.528379 0-40.702533 18.174154-40.702533 40.702533v154.290996zM710.401183 1024H300.725458c-41.838417 0-75.725642-33.887225-75.725643-75.725642v-147.097061c0-10.412276 8.519135-18.931411 18.931411-18.931411s18.931411 8.519135 18.93141 18.931411v147.097061c0 20.824552 17.03827 37.862821 37.862822 37.862821h409.865039c20.824552 0 37.862821-17.03827 37.862822-37.862821v-147.097061c0-10.412276 8.519135-18.931411 18.93141-18.931411s18.931411 8.519135 18.931411 18.931411v147.097061c-0.189314 41.838417-34.076539 75.725642-75.914957 75.725642z" fill="#262435" p-id="2400"></path><path d="M767.195415 820.108708c-10.412276 0-18.931411-8.519135-18.931411-18.931411v-111.695323c0-20.824552-17.03827-37.862821-37.862821-37.862821H300.725458c-20.824552 0-37.862821 17.03827-37.862822 37.862821v111.695323c0 10.412276-8.519135 18.931411-18.93141 18.931411s-18.931411-8.519135-18.931411-18.931411v-111.695323c0-41.838417 33.887225-75.725642 75.725643-75.725642h409.865039c41.838417 0 75.725642 33.887225 75.725643 75.725642v111.695323c-0.189314 10.60159-8.519135 18.931411-19.120725 18.931411z" fill="#262435" p-id="2401"></path></svg>